<svg xmlns="http://www.w3.org/2000/svg" width="321.56" height="35" viewBox="0 0 321.56 35"><rect class="svg__rect" x="0" y="0" width="84.66" height="35" fill="#FFB549"/><rect class="svg__rect" x="82.66" y="0" width="238.9" height="35" fill="#FFC062"/><path class="svg__text" d="M13.61 19.57L13.61 19.57L15.09 19.57Q15.09 20.25 15.43 20.59Q15.76 20.93 16.40 20.93L16.40 20.93Q17.00 20.93 17.35 20.54Q17.71 20.14 17.71 19.45L17.71 19.45L17.71 13.47L19.19 13.47L19.19 19.45Q19.19 20.68 18.42 21.40Q17.66 22.12 16.40 22.12L16.40 22.12Q15.07 22.12 14.34 21.44Q13.61 20.77 13.61 19.57ZM23.73 19.16L23.73 19.16L23.73 13.47L25.21 13.47L25.21 19.18Q25.21 20.03 25.64 20.48Q26.08 20.93 26.92 20.93L26.92 20.93Q28.63 20.93 28.63 19.13L28.63 19.13L28.63 13.47L30.11 13.47L30.11 19.17Q30.11 20.53 29.24 21.32Q28.37 22.12 26.92 22.12L26.92 22.12Q25.46 22.12 24.59 21.33Q23.73 20.55 23.73 19.16ZM36.16 22L34.68 22L34.68 13.47L36.16 13.47L39.98 19.54L39.98 13.47L41.45 13.47L41.45 22L39.96 22L36.16 15.95L36.16 22ZM47.75 22L46.27 22L46.27 13.47L47.75 13.47L47.75 22ZM52.29 18.00L52.29 18.00L52.29 17.52Q52.29 16.28 52.73 15.32Q53.18 14.37 53.98 13.86Q54.79 13.35 55.83 13.35Q56.87 13.35 57.68 13.85Q58.48 14.35 58.92 15.29Q59.36 16.23 59.37 17.48L59.37 17.48L59.37 17.96Q59.37 19.21 58.94 20.16Q58.50 21.10 57.70 21.61Q56.89 22.12 55.84 22.12L55.84 22.12Q54.81 22.12 53.99 21.61Q53.18 21.10 52.74 20.17Q52.30 19.23 52.29 18.00ZM53.77 17.46L53.77 17.96Q53.77 19.36 54.32 20.13Q54.87 20.90 55.84 20.90L55.84 20.90Q56.83 20.90 57.36 20.15Q57.89 19.40 57.89 17.96L57.89 17.96L57.89 17.51Q57.89 16.09 57.35 15.34Q56.81 14.58 55.83 14.58L55.83 14.58Q54.87 14.58 54.33 15.33Q53.79 16.09 53.77 17.46L53.77 17.46ZM65.32 22L63.83 22L63.83 13.47L66.83 13.47Q68.31 13.47 69.11 14.13Q69.92 14.79 69.92 16.05L69.92 16.05Q69.92 16.90 69.50 17.48Q69.09 18.06 68.35 18.37L68.35 18.37L70.27 21.92L70.27 22L68.68 22L66.97 18.71L65.32 18.71L65.32 22ZM65.32 14.66L65.32 17.52L66.84 17.52Q67.59 17.52 68.01 17.15Q68.43 16.77 68.43 16.11L68.43 16.11Q68.43 15.43 68.04 15.05Q67.65 14.68 66.88 14.66L66.88 14.66L65.32 14.66Z" fill="#1F292E"/><path class="svg__text" d="M99.23 22L96.85 22L96.85 13.60L103.44 13.60L103.44 15.44L99.23 15.44L99.23 17.28L102.94 17.28L102.94 19.12L99.23 19.12L99.23 22ZM110.41 22L108.03 22L108.03 13.60L111.88 13.60Q113.02 13.60 113.86 13.98Q114.70 14.35 115.15 15.06Q115.61 15.76 115.61 16.71L115.61 16.71Q115.61 17.62 115.18 18.30Q114.75 18.98 113.96 19.36L113.96 19.36L115.77 22L113.23 22L111.71 19.77L110.41 19.77L110.41 22ZM110.41 15.47L110.41 17.93L111.73 17.93Q112.46 17.93 112.84 17.61Q113.21 17.29 113.21 16.71L113.21 16.71Q113.21 16.12 112.84 15.79Q112.46 15.47 111.73 15.47L111.73 15.47L110.41 15.47ZM119.97 17.80L119.97 17.80Q119.97 16.55 120.57 15.55Q121.18 14.56 122.24 14.00Q123.30 13.43 124.63 13.43L124.63 13.43Q125.96 13.43 127.03 14.00Q128.09 14.56 128.70 15.55Q129.30 16.55 129.30 17.80L129.30 17.80Q129.30 19.05 128.70 20.04Q128.09 21.04 127.03 21.60Q125.97 22.17 124.63 22.17L124.63 22.17Q123.30 22.17 122.24 21.60Q121.18 21.04 120.57 20.04Q119.97 19.05 119.97 17.80ZM122.37 17.80L122.37 17.80Q122.37 18.51 122.67 19.05Q122.97 19.60 123.48 19.90Q124.00 20.20 124.63 20.20L124.63 20.20Q125.27 20.20 125.79 19.90Q126.30 19.60 126.60 19.05Q126.90 18.51 126.90 17.80L126.90 17.80Q126.90 17.09 126.60 16.54Q126.30 16 125.79 15.70Q125.27 15.40 124.63 15.40L124.63 15.40Q123.99 15.40 123.48 15.70Q122.97 16 122.67 16.54Q122.37 17.09 122.37 17.80ZM136.36 22L134.03 22L134.03 13.60L135.99 13.60L139.70 18.07L139.70 13.60L142.02 13.60L142.02 22L140.07 22L136.36 17.52L136.36 22ZM148.98 15.48L146.39 15.48L146.39 13.60L153.92 13.60L153.92 15.48L151.35 15.48L151.35 22L148.98 22L148.98 15.48ZM165.03 22L158.29 22L158.29 13.60L164.88 13.60L164.88 15.44L160.64 15.44L160.64 16.85L164.38 16.85L164.38 18.63L160.64 18.63L160.64 20.17L165.03 20.17L165.03 22ZM172.17 22L169.84 22L169.84 13.60L171.80 13.60L175.50 18.07L175.50 13.60L177.83 13.60L177.83 22L175.88 22L172.17 17.52L172.17 22ZM186.97 22L182.99 22L182.99 13.60L186.97 13.60Q188.35 13.60 189.41 14.12Q190.48 14.63 191.07 15.58Q191.66 16.53 191.66 17.80L191.66 17.80Q191.66 19.07 191.07 20.02Q190.48 20.97 189.41 21.48Q188.35 22 186.97 22L186.97 22ZM185.37 15.50L185.37 20.10L186.87 20.10Q187.95 20.10 188.60 19.49Q189.26 18.88 189.26 17.80L189.26 17.80Q189.26 16.72 188.60 16.11Q187.95 15.50 186.87 15.50L186.87 15.50L185.37 15.50ZM199.63 19.46L196.12 19.46L196.12 17.71L199.63 17.71L199.63 19.46ZM208.50 22L204.53 22L204.53 13.60L208.50 13.60Q209.88 13.60 210.95 14.12Q212.01 14.63 212.60 15.58Q213.19 16.53 213.19 17.80L213.19 17.80Q213.19 19.07 212.60 20.02Q212.01 20.97 210.95 21.48Q209.88 22 208.50 22L208.50 22ZM206.90 15.50L206.90 20.10L208.40 20.10Q209.48 20.10 210.14 19.49Q210.79 18.88 210.79 17.80L210.79 17.80Q210.79 16.72 210.14 16.11Q209.48 15.50 208.40 15.50L208.40 15.50L206.90 15.50ZM224.66 22L217.92 22L217.92 13.60L224.51 13.60L224.51 15.44L220.28 15.44L220.28 16.85L224.01 16.85L224.01 18.63L220.28 18.63L220.28 20.17L224.66 20.17L224.66 22ZM232.05 22L228.46 13.60L231.03 13.60L233.31 19.07L235.64 13.60L237.99 13.60L234.39 22L232.05 22ZM248.89 22L242.14 22L242.14 13.60L248.73 13.60L248.73 15.44L244.50 15.44L244.50 16.85L248.23 16.85L248.23 18.63L244.50 18.63L244.50 20.17L248.89 20.17L248.89 22ZM260.08 22L253.69 22L253.69 13.60L256.07 13.60L256.07 20.11L260.08 20.11L260.08 22ZM264.07 17.80L264.07 17.80Q264.07 16.55 264.67 15.55Q265.28 14.56 266.34 14.00Q267.40 13.43 268.73 13.43L268.73 13.43Q270.06 13.43 271.13 14.00Q272.19 14.56 272.80 15.55Q273.40 16.55 273.40 17.80L273.40 17.80Q273.40 19.05 272.80 20.04Q272.19 21.04 271.13 21.60Q270.07 22.17 268.73 22.17L268.73 22.17Q267.40 22.17 266.34 21.60Q265.28 21.04 264.67 20.04Q264.07 19.05 264.07 17.80ZM266.47 17.80L266.47 17.80Q266.47 18.51 266.77 19.05Q267.07 19.60 267.58 19.90Q268.10 20.20 268.73 20.20L268.73 20.20Q269.37 20.20 269.89 19.90Q270.40 19.60 270.70 19.05Q271.00 18.51 271.00 17.80L271.00 17.80Q271.00 17.09 270.70 16.54Q270.40 16 269.89 15.70Q269.37 15.40 268.73 15.40L268.73 15.40Q268.09 15.40 267.58 15.70Q267.07 16 266.77 16.54Q266.47 17.09 266.47 17.80ZM280.51 22L278.13 22L278.13 13.60L281.97 13.60Q283.11 13.60 283.95 13.98Q284.79 14.35 285.25 15.06Q285.71 15.76 285.71 16.71L285.71 16.71Q285.71 17.66 285.25 18.35Q284.79 19.05 283.95 19.42Q283.11 19.80 281.97 19.80L281.97 19.80L280.51 19.80L280.51 22ZM280.51 15.47L280.51 17.93L281.83 17.93Q282.56 17.93 282.93 17.61Q283.30 17.29 283.30 16.71L283.30 16.71Q283.30 16.12 282.93 15.80Q282.56 15.47 281.83 15.47L281.83 15.47L280.51 15.47ZM297.20 22L290.46 22L290.46 13.60L297.05 13.60L297.05 15.44L292.81 15.44L292.81 16.85L296.55 16.85L296.55 18.63L292.81 18.63L292.81 20.17L297.20 20.17L297.20 22ZM304.39 22L302.01 22L302.01 13.60L305.85 13.60Q306.99 13.60 307.83 13.98Q308.67 14.35 309.13 15.06Q309.58 15.76 309.58 16.71L309.58 16.71Q309.58 17.62 309.16 18.30Q308.73 18.98 307.94 19.36L307.94 19.36L309.75 22L307.21 22L305.68 19.77L304.39 19.77L304.39 22ZM304.39 15.47L304.39 17.93L305.71 17.93Q306.44 17.93 306.81 17.61Q307.18 17.29 307.18 16.71L307.18 16.71Q307.18 16.12 306.81 15.79Q306.44 15.47 305.71 15.47L305.71 15.47L304.39 15.47Z" fill="#1F292E" x="95.66"/></svg>