<svg xmlns="http://www.w3.org/2000/svg" width="478.39000000000004" height="35" viewBox="0 0 478.39000000000004 35"><rect class="svg__rect" x="0" y="0" width="211.68" height="35" fill="#FFB549"/><rect class="svg__rect" x="209.68" y="0" width="268.71000000000004" height="35" fill="#FFC062"/><path class="svg__text" d="M16.25 14.66L13.61 14.66L13.61 13.47L20.38 13.47L20.38 14.66L17.72 14.66L17.72 22L16.25 22L16.25 14.66ZM29.72 22L24.14 22L24.14 13.47L29.67 13.47L29.67 14.66L25.62 14.66L25.62 17.02L29.12 17.02L29.12 18.19L25.62 18.19L25.62 20.82L29.72 20.82L29.72 22ZM33.64 18.19L33.64 18.19L33.64 17.39Q33.64 16.19 34.07 15.27Q34.50 14.35 35.30 13.85Q36.10 13.35 37.14 13.35L37.14 13.35Q38.56 13.35 39.42 14.12Q40.28 14.89 40.42 16.29L40.42 16.29L38.94 16.29Q38.84 15.37 38.41 14.96Q37.98 14.55 37.14 14.55L37.14 14.55Q36.18 14.55 35.66 15.26Q35.14 15.96 35.13 17.33L35.13 17.33L35.13 18.09Q35.13 19.47 35.62 20.20Q36.12 20.92 37.07 20.92L37.07 20.92Q37.95 20.92 38.39 20.53Q38.83 20.14 38.94 19.22L38.94 19.22L40.42 19.22Q40.29 20.59 39.41 21.35Q38.53 22.12 37.07 22.12L37.07 22.12Q36.06 22.12 35.28 21.63Q34.50 21.15 34.08 20.26Q33.66 19.37 33.64 18.19ZM46.22 22L44.73 22L44.73 13.47L46.22 13.47L46.22 17.02L50.03 17.02L50.03 13.47L51.51 13.47L51.51 22L50.03 22L50.03 18.21L46.22 18.21L46.22 22ZM57.73 22L56.25 22L56.25 13.47L57.73 13.47L61.54 19.54L61.54 13.47L63.01 13.47L63.01 22L61.53 22L57.73 15.95L57.73 22ZM69.32 22L67.84 22L67.84 13.47L69.32 13.47L69.32 22ZM73.86 18.19L73.86 18.19L73.86 17.39Q73.86 16.19 74.29 15.27Q74.72 14.35 75.52 13.85Q76.31 13.35 77.36 13.35L77.36 13.35Q78.78 13.35 79.64 14.12Q80.50 14.89 80.64 16.29L80.64 16.29L79.16 16.29Q79.06 15.37 78.63 14.96Q78.20 14.55 77.36 14.55L77.36 14.55Q76.40 14.55 75.88 15.26Q75.36 15.96 75.35 17.33L75.35 17.33L75.35 18.09Q75.35 19.47 75.84 20.20Q76.34 20.92 77.29 20.92L77.29 20.92Q78.17 20.92 78.61 20.53Q79.05 20.14 79.16 19.22L79.16 19.22L80.64 19.22Q80.51 20.59 79.63 21.35Q78.75 22.12 77.29 22.12L77.29 22.12Q76.27 22.12 75.50 21.63Q74.72 21.15 74.30 20.26Q73.88 19.37 73.86 18.19ZM85.73 22L84.19 22L87.41 13.47L88.74 13.47L91.97 22L90.42 22L89.73 20.01L86.42 20.01L85.73 22ZM88.07 15.28L86.84 18.82L89.31 18.82L88.07 15.28ZM101.28 22L95.93 22L95.93 13.47L97.41 13.47L97.41 20.82L101.28 20.82L101.28 22ZM112.16 22L110.62 22L113.84 13.47L115.17 13.47L118.40 22L116.86 22L116.16 20.01L112.85 20.01L112.16 22ZM114.51 15.28L113.27 18.82L115.74 18.82L114.51 15.28ZM121.92 19.42L121.92 19.42L123.41 19.42Q123.41 20.15 123.89 20.55Q124.37 20.95 125.26 20.95L125.26 20.95Q126.04 20.95 126.43 20.63Q126.82 20.32 126.82 19.80L126.82 19.80Q126.82 19.24 126.42 18.94Q126.03 18.63 124.99 18.32Q123.96 18.01 123.35 17.63L123.35 17.63Q122.19 16.90 122.19 15.72L122.19 15.72Q122.19 14.69 123.03 14.02Q123.87 13.35 125.21 13.35L125.21 13.35Q126.10 13.35 126.80 13.68Q127.50 14.01 127.89 14.61Q128.29 15.22 128.29 15.96L128.29 15.96L126.82 15.96Q126.82 15.29 126.40 14.91Q125.98 14.54 125.20 14.54L125.20 14.54Q124.47 14.54 124.07 14.85Q123.67 15.16 123.67 15.71L123.67 15.71Q123.67 16.18 124.10 16.50Q124.54 16.81 125.53 17.10Q126.53 17.40 127.13 17.78Q127.74 18.16 128.02 18.65Q128.30 19.13 128.30 19.79L128.30 19.79Q128.30 20.86 127.48 21.49Q126.66 22.12 125.26 22.12L125.26 22.12Q124.34 22.12 123.56 21.77Q122.79 21.43 122.35 20.83Q121.92 20.22 121.92 19.42ZM132.15 19.42L132.15 19.42L133.64 19.42Q133.64 20.15 134.12 20.55Q134.60 20.95 135.49 20.95L135.49 20.95Q136.27 20.95 136.66 20.63Q137.05 20.32 137.05 19.80L137.05 19.80Q137.05 19.24 136.65 18.94Q136.26 18.63 135.22 18.32Q134.19 18.01 133.58 17.63L133.58 17.63Q132.42 16.90 132.42 15.72L132.42 15.72Q132.42 14.69 133.26 14.02Q134.10 13.35 135.44 13.35L135.44 13.35Q136.33 13.35 137.03 13.68Q137.73 14.01 138.13 14.61Q138.52 15.22 138.52 15.96L138.52 15.96L137.05 15.96Q137.05 15.29 136.63 14.91Q136.21 14.54 135.43 14.54L135.43 14.54Q134.70 14.54 134.30 14.85Q133.90 15.16 133.90 15.71L133.90 15.71Q133.90 16.18 134.33 16.50Q134.77 16.81 135.76 17.10Q136.76 17.40 137.36 17.78Q137.97 18.16 138.25 18.65Q138.53 19.13 138.53 19.79L138.53 19.79Q138.53 20.86 137.71 21.49Q136.89 22.12 135.49 22.12L135.49 22.12Q134.57 22.12 133.79 21.77Q133.02 21.43 132.59 20.83Q132.15 20.22 132.15 19.42ZM144.38 22L142.91 22L142.91 13.47L144.38 13.47L144.38 22ZM148.76 19.42L148.76 19.42L150.24 19.42Q150.24 20.15 150.72 20.55Q151.20 20.95 152.10 20.95L152.10 20.95Q152.87 20.95 153.26 20.63Q153.65 20.32 153.65 19.80L153.65 19.80Q153.65 19.24 153.26 18.94Q152.86 18.63 151.83 18.32Q150.80 18.01 150.19 17.63L150.19 17.63Q149.02 16.90 149.02 15.72L149.02 15.72Q149.02 14.69 149.86 14.02Q150.71 13.35 152.05 13.35L152.05 13.35Q152.94 13.35 153.64 13.68Q154.33 14.01 154.73 14.61Q155.13 15.22 155.13 15.96L155.13 15.96L153.65 15.96Q153.65 15.29 153.23 14.91Q152.81 14.54 152.04 14.54L152.04 14.54Q151.31 14.54 150.91 14.85Q150.51 15.16 150.51 15.71L150.51 15.71Q150.51 16.18 150.94 16.50Q151.37 16.81 152.37 17.10Q153.37 17.40 153.97 17.78Q154.57 18.16 154.85 18.65Q155.14 19.13 155.14 19.79L155.14 19.79Q155.14 20.86 154.32 21.49Q153.50 22.12 152.10 22.12L152.10 22.12Q151.17 22.12 150.40 21.77Q149.62 21.43 149.19 20.83Q148.76 20.22 148.76 19.42ZM161.11 14.66L158.47 14.66L158.47 13.47L165.24 13.47L165.24 14.66L162.58 14.66L162.58 22L161.11 22L161.11 14.66ZM169.77 22L168.23 22L171.45 13.47L172.78 13.47L176.01 22L174.47 22L173.77 20.01L170.46 20.01L169.77 22ZM172.12 15.28L170.88 18.82L173.35 18.82L172.12 15.28ZM181.45 22L179.97 22L179.97 13.47L181.45 13.47L185.26 19.54L185.26 13.47L186.73 13.47L186.73 22L185.25 22L181.45 15.95L181.45 22ZM193.16 14.66L190.52 14.66L190.52 13.47L197.29 13.47L197.29 14.66L194.63 14.66L194.63 22L193.16 22L193.16 14.66Z" fill="#1F292E"/><path class="svg__text" d="M223.28 21.24L223.28 21.24L224.06 19.49Q224.62 19.86 225.37 20.09Q226.11 20.32 226.83 20.32L226.83 20.32Q228.20 20.32 228.20 19.64L228.20 19.64Q228.20 19.28 227.81 19.11Q227.42 18.93 226.56 18.74L226.56 18.74Q225.61 18.53 224.97 18.30Q224.34 18.06 223.88 17.55Q223.43 17.03 223.43 16.16L223.43 16.16Q223.43 15.39 223.85 14.77Q224.27 14.15 225.10 13.79Q225.94 13.43 227.14 13.43L227.14 13.43Q227.97 13.43 228.78 13.62Q229.58 13.80 230.20 14.17L230.20 14.17L229.46 15.93Q228.26 15.28 227.13 15.28L227.13 15.28Q226.42 15.28 226.10 15.49Q225.78 15.70 225.78 16.04L225.78 16.04Q225.78 16.37 226.16 16.54Q226.55 16.71 227.40 16.89L227.40 16.89Q228.36 17.10 228.99 17.33Q229.62 17.56 230.08 18.07Q230.54 18.58 230.54 19.46L230.54 19.46Q230.54 20.21 230.12 20.83Q229.70 21.44 228.86 21.80Q228.02 22.17 226.82 22.17L226.82 22.17Q225.80 22.17 224.84 21.92Q223.88 21.67 223.28 21.24ZM234.69 17.80L234.69 17.80Q234.69 16.55 235.29 15.55Q235.90 14.56 236.96 14.00Q238.02 13.43 239.35 13.43L239.35 13.43Q240.68 13.43 241.75 14.00Q242.81 14.56 243.42 15.55Q244.02 16.55 244.02 17.80L244.02 17.80Q244.02 19.05 243.42 20.04Q242.81 21.04 241.75 21.60Q240.69 22.17 239.35 22.17L239.35 22.17Q238.02 22.17 236.96 21.60Q235.90 21.04 235.29 20.04Q234.69 19.05 234.69 17.80ZM237.09 17.80L237.09 17.80Q237.09 18.51 237.39 19.05Q237.69 19.60 238.21 19.90Q238.72 20.20 239.35 20.20L239.35 20.20Q239.99 20.20 240.51 19.90Q241.02 19.60 241.32 19.05Q241.62 18.51 241.62 17.80L241.62 17.80Q241.62 17.09 241.32 16.54Q241.02 16 240.51 15.70Q239.99 15.40 239.35 15.40L239.35 15.40Q238.72 15.40 238.20 15.70Q237.69 16 237.39 16.54Q237.09 17.09 237.09 17.80ZM251.13 22L248.75 22L248.75 13.60L255.34 13.60L255.34 15.44L251.13 15.44L251.13 17.28L254.84 17.28L254.84 19.12L251.13 19.12L251.13 22ZM261.73 15.48L259.15 15.48L259.15 13.60L266.67 13.60L266.67 15.48L264.10 15.48L264.10 22L261.73 22L261.73 15.48ZM273.12 22L270.40 13.60L272.85 13.60L274.53 18.96L276.31 13.60L278.49 13.60L280.19 19.01L281.95 13.60L284.22 13.60L281.49 22L278.95 22L277.35 16.89L275.66 22L273.12 22ZM290.15 22L287.72 22L291.43 13.60L293.78 13.60L297.49 22L295.02 22L294.36 20.37L290.81 20.37L290.15 22ZM292.59 15.93L291.50 18.61L293.66 18.61L292.59 15.93ZM304.02 22L301.65 22L301.65 13.60L305.49 13.60Q306.63 13.60 307.47 13.98Q308.31 14.35 308.76 15.06Q309.22 15.76 309.22 16.71L309.22 16.71Q309.22 17.62 308.79 18.30Q308.37 18.98 307.57 19.36L307.57 19.36L309.39 22L306.84 22L305.32 19.77L304.02 19.77L304.02 22ZM304.02 15.47L304.02 17.93L305.34 17.93Q306.07 17.93 306.45 17.61Q306.82 17.29 306.82 16.71L306.82 16.71Q306.82 16.12 306.45 15.79Q306.07 15.47 305.34 15.47L305.34 15.47L304.02 15.47ZM320.75 22L314.01 22L314.01 13.60L320.60 13.60L320.60 15.44L316.36 15.44L316.36 16.85L320.10 16.85L320.10 18.63L316.36 18.63L316.36 20.17L320.75 20.17L320.75 22ZM328.80 19.46L325.29 19.46L325.29 17.71L328.80 17.71L328.80 19.46ZM337.67 22L333.70 22L333.70 13.60L337.67 13.60Q339.05 13.60 340.12 14.12Q341.18 14.63 341.77 15.58Q342.36 16.53 342.36 17.80L342.36 17.80Q342.36 19.07 341.77 20.02Q341.18 20.97 340.12 21.48Q339.05 22 337.67 22L337.67 22ZM336.07 15.50L336.07 20.10L337.57 20.10Q338.65 20.10 339.31 19.49Q339.96 18.88 339.96 17.80L339.96 17.80Q339.96 16.72 339.31 16.11Q338.65 15.50 337.57 15.50L337.57 15.50L336.07 15.50ZM353.83 22L347.09 22L347.09 13.60L353.68 13.60L353.68 15.44L349.45 15.44L349.45 16.85L353.18 16.85L353.18 18.63L349.45 18.63L349.45 20.17L353.83 20.17L353.83 22ZM361.22 22L357.63 13.60L360.20 13.60L362.48 19.07L364.81 13.60L367.16 13.60L363.56 22L361.22 22ZM378.06 22L371.31 22L371.31 13.60L377.91 13.60L377.91 15.44L373.67 15.44L373.67 16.85L377.40 16.85L377.40 18.63L373.67 18.63L373.67 20.17L378.06 20.17L378.06 22ZM389.25 22L382.86 22L382.86 13.60L385.24 13.60L385.24 20.11L389.25 20.11L389.25 22ZM393.24 17.80L393.24 17.80Q393.24 16.55 393.84 15.55Q394.45 14.56 395.51 14.00Q396.57 13.43 397.90 13.43L397.90 13.43Q399.23 13.43 400.30 14.00Q401.36 14.56 401.97 15.55Q402.57 16.55 402.57 17.80L402.57 17.80Q402.57 19.05 401.97 20.04Q401.36 21.04 400.30 21.60Q399.24 22.17 397.90 22.17L397.90 22.17Q396.57 22.17 395.51 21.60Q394.45 21.04 393.84 20.04Q393.24 19.05 393.24 17.80ZM395.64 17.80L395.64 17.80Q395.64 18.51 395.94 19.05Q396.24 19.60 396.75 19.90Q397.27 20.20 397.90 20.20L397.90 20.20Q398.54 20.20 399.06 19.90Q399.57 19.60 399.87 19.05Q400.17 18.51 400.17 17.80L400.17 17.80Q400.17 17.09 399.87 16.54Q399.57 16 399.06 15.70Q398.54 15.40 397.90 15.40L397.90 15.40Q397.26 15.40 396.75 15.70Q396.24 16 395.94 16.54Q395.64 17.09 395.64 17.80ZM409.68 22L407.30 22L407.30 13.60L411.15 13.60Q412.28 13.60 413.12 13.98Q413.96 14.35 414.42 15.06Q414.88 15.76 414.88 16.71L414.88 16.71Q414.88 17.66 414.42 18.35Q413.96 19.05 413.12 19.42Q412.28 19.80 411.15 19.80L411.15 19.80L409.68 19.80L409.68 22ZM409.68 15.47L409.68 17.93L411.00 17.93Q411.73 17.93 412.10 17.61Q412.48 17.29 412.48 16.71L412.48 16.71Q412.48 16.12 412.10 15.80Q411.73 15.47 411.00 15.47L411.00 15.47L409.68 15.47ZM421.83 22L419.63 22L419.63 13.60L421.59 13.60L424.54 18.45L427.42 13.60L429.37 13.60L429.40 22L427.22 22L427.19 17.55L425.03 21.17L423.98 21.17L421.83 17.67L421.83 22ZM441.30 22L434.56 22L434.56 13.60L441.15 13.60L441.15 15.44L436.91 15.44L436.91 16.85L440.65 16.85L440.65 18.63L436.91 18.63L436.91 20.17L441.30 20.17L441.30 22ZM448.44 22L446.11 22L446.11 13.60L448.07 13.60L451.77 18.07L451.77 13.60L454.10 13.60L454.10 22L452.15 22L448.44 17.52L448.44 22ZM461.06 15.48L458.47 15.48L458.47 13.60L465.99 13.60L465.99 15.48L463.43 15.48L463.43 22L461.06 22L461.06 15.48Z" fill="#1F292E" x="222.68"/></svg>